#!OML:ASF I:\Actors\actors\Patient Classification 2\Patient 1\Session 1\actor1.ASF
:FULLY-SPECIFIED
:DEGREES
515
root -0.929253 18.7412 5.5054 1.04891 -0.517089 -1.25965
lowerback 5.71204 -0.336882 1.55483
upperback -0.701031 -0.311856 0.708406
thorax -3.93292 -0.181032 -0.113321
lowerneck -15.0866 -1.92287 -1.6293
upperneck 17.9865 -3.04143 3.75557
head 8.15001 -1.17574 1.17383
rclavicle 4.78326e-015 8.64713e-015
rhumerus 3.41631 32.344 -77.4229
rradius 90.3454
rwrist -20.3144
rhand -13.6211 -58.7036
rfingers 7.12502
rthumb 12.4944 -88.3101
lclavicle 4.78326e-015 8.64713e-015
lhumerus -5.28499 -33.3693 90.058
lradius 94.1054
lwrist 47.8256
lhand -28.8634 -11.8555
lfingers 7.12502
lthumb -2.2198 18.1127
rfemur 6.71207 3.25218 16.4068
rtibia 2.06736e-014
rfoot -18.0433 -12.9391
rtoes -2.47591
lfemur -4.35769 -5.02449 -11.9892
ltibia 19.4773
lfoot -20.2169 13.0015
ltoes -55.9132
516
root -0.930096 18.7406 5.50573 1.02685 -0.433117 -1.23518
lowerback 5.70868 -0.330302 1.49979
upperback -0.680698 -0.306998 0.717032
thorax -3.90949 -0.177122 -0.0740963
lowerneck -15.1053 -1.96323 -1.70783
upperneck 17.9865 -3.08683 3.79786
head 8.1566 -1.1981 1.19557
rclavicle 1.67725e-015 -3.27995e-015
rhumerus 3.29688 32.6878 -77.7248
rradius 89.9571
rwrist -20.5277
rhand -13.6614 -58.989
rfingers 7.12502
rthumb 12.4556 -88.5978
lclavicle 1.67725e-015 -3.27995e-015
lhumerus -5.08418 -33.3078 90.0792
lradius 93.8293
lwrist 48.1727
lhand -29.0573 -11.8151
lfingers 7.12502
lthumb -2.4071 18.151
rfemur 6.75492 3.16942 16.3795
rtibia -6.36111e-015
rfoot -18.0684 -12.8996
rtoes -2.40408
lfemur -4.35258 -5.05751 -12.0113
ltibia 19.4853
lfoot -20.1981 12.9451
ltoes -55.8771
517
root -0.930737 18.741 5.50579 1.01967 -0.364851 -1.22257
lowerback 5.70622 -0.323906 1.44558
upperback -0.664397 -0.302098 0.729261
thorax -3.89076 -0.17323 -0.0315998
lowerneck -15.1206 -1.98739 -1.71213
upperneck 17.9593 -3.10937 3.7573
head 8.15026 -1.21323 1.17998
rclavicle 5.684e-015 -7.25564e-015
rhumerus 3.15371 33.0205 -78.0095
rradius 89.5904
rwrist -20.6321
rhand -13.7702 -59.226
rfingers 7.12502
rthumb 12.3506 -88.8412
lclavicle 5.684e-015 -7.25564e-015
lhumerus -4.90103 -33.2254 90.0886
lradius 93.5738
lwrist 48.4475
lhand -29.1944 -11.5763
lfingers 7.12502
lthumb -2.53947 18.3883
rfemur 6.77492 3.10172 16.3642
rtibia 7.95139e-015
rfoot -18.0913 -12.8528
rtoes -2.08602
lfemur -4.35896 -5.11859 -12.0209
ltibia 19.4861
lfoot -20.2078 12.9473
ltoes -55.8373
518
root -0.930942 18.7417 5.50434 1.04245 -0.30842 -1.21317
lowerback 5.69211 -0.300795 1.4052
upperback -0.646046 -0.274623 0.730608
thorax -3.86324 -0.158511 -0.010196
lowerneck -15.1397 -2.03449 -1.71356
upperneck 17.8641 -3.15798 3.69941
head 8.12229 -1.24293 1.15496
rclavicle -5.95112e-015 -5.86415e-015
rhumerus 3.09285 33.2945 -78.1243
rradius 89.2599
rwrist -20.735
rhand -13.6417 -59.6429
rfingers 7.12502
rthumb 12.4746 -89.2506
lclavicle -5.95112e-015 -5.86415e-015
lhumerus -4.72247 -33.2338 90.0579
lradius 93.3344
lwrist 48.6012
lhand -29.4056 -11.3682
lfingers 7.12502
lthumb -2.7434 18.5939
rfemur 6.75409 3.04408 16.3527
rtibia -1.27222e-014
rfoot -18.0949 -12.8671
rtoes -2.08677
lfemur -4.40926 -5.14448 -12.0269
ltibia 19.4915
lfoot -20.2134 12.9393
ltoes -55.7995
519
root -0.931254 18.7423 5.50289 1.07415 -0.257505 -1.22132
lowerback 5.6768 -0.263242 1.4182
upperback -0.631719 -0.22483 0.713213
thorax -3.83936 -0.134082 -0.0400364
lowerneck -15.1548 -2.09836 -1.7883
upperneck 17.7712 -3.23832 3.76726
head 8.09885 -1.28001 1.18037
rclavicle 2.4786e-015 -1.49089e-015
rhumerus 3.04086 33.4789 -78.1585
rradius 88.9172
rwrist -20.6838
rhand -13.3302 -60.2858
rfingers 7.12502
rthumb 12.7748 -89.875
lclavicle 2.4786e-015 -1.49089e-015
lhumerus -4.56083 -33.3556 89.9955
lradius 93.0799
lwrist 48.6928
lhand -29.6473 -11.4835
lfingers 7.12502
lthumb -2.97688 18.4755
rfemur 6.71973 2.99168 16.3597
rtibia 3.49861e-014
rfoot -18.0934 -12.8752
rtoes -2.19962
lfemur -4.47046 -5.12749 -12.0093
ltibia 19.4993
lfoot -20.1948 12.8792
ltoes -55.8045
520
root -0.931458 18.7423 5.50181 1.08582 -0.216761 -1.23624
lowerback 5.67544 -0.235362 1.42809
upperback -0.615549 -0.187689 0.701074
thorax -3.82149 -0.115828 -0.0614968
lowerneck -15.173 -2.13097 -1.8127
upperneck 17.7091 -3.28328 3.80879
head 8.08394 -1.2992 1.19279
rclavicle -1.12251e-014 5.26779e-015
rhumerus 3.47444 34.0462 -77.5964
rradius 88.5204
rwrist -20.9831
rhand -13.0487 -60.8582
rfingers 7.12502
rthumb 13.0462 -269.57
lclavicle -1.12251e-014 5.26779e-015
lhumerus -4.39315 -33.4772 89.9088
lradius 92.7884
lwrist 48.7405
lhand -29.8677 -11.6882
lfingers 7.12502
lthumb -3.18967 18.2677
rfemur 6.70878 2.95105 16.3712
rtibia 6.36111e-015
rfoot -18.1197 -12.8386
rtoes -1.98105
lfemur -4.50163 -5.07687 -11.9826
ltibia 19.5007
lfoot -20.1475 12.8155
ltoes -55.9139
521
root -0.931755 18.7417 5.50016 1.08837 -0.18226 -1.22597
lowerback 5.68176 -0.222154 1.38297
upperback -0.593607 -0.173596 0.695908
thorax -3.802 -0.107765 -0.0428204
lowerneck -15.2062 -2.1383 -1.78978
upperneck 17.6436 -3.29392 3.79916
head 8.06777 -1.30393 1.18421
rclavicle 6.56611e-015 -1.23246e-014
rhumerus 4.10804 34.8927 -76.7627
rradius 88.198
rwrist -21.7774
rhand -12.9468 -61.1045
rfingers 7.12502
rthumb 13.1444 -269.33
lclavicle 6.56611e-015 -1.23246e-014
lhumerus -4.21698 -33.5682 89.8051
lradius 92.5086
lwrist 48.6973
lhand -30.1627 -11.6356
lfingers 7.12502
lthumb -3.47458 18.3159
rfemur 6.71032 2.91666 16.3573
rtibia 1.43125e-014
rfoot -18.1402 -12.8122
rtoes -1.80421
lfemur -4.51726 -5.08533 -11.9924
ltibia 19.498
lfoot -20.1262 12.8049
ltoes -55.9954
522
root -0.93241 18.7421 5.49808 1.11028 -0.147406 -1.21391
lowerback 5.68267 -0.218304 1.34035
upperback -0.575604 -0.1721 0.684094
thorax -3.78373 -0.106113 -0.0312962
lowerneck -15.1874 -2.13939 -1.78354
upperneck 17.5191 -3.29668 3.82115
head 8.02332 -1.30421 1.1901
rclavicle 9.31803e-016 -1.88845e-015
rhumerus 3.52625 34.9862 -77.3969
rradius 88.0388
rwrist -21.7685
rhand -12.7806 -60.7622
rfingers 7.12502
rthumb 13.3047 -269.682
lclavicle 9.31803e-016 -1.88845e-015
lhumerus -4.0224 -33.6618 89.6731
lradius 92.2475
lwrist 48.7066
lhand -30.47 -11.3868
lfingers 7.12502
lthumb -3.77134 18.5596
rfemur 6.69028 2.88017 16.3458
rtibia -6.36111e-015
rfoot -18.1201 -12.8117
rtoes -1.81554
lfemur -4.55042 -5.17464 -12.0067
ltibia 19.4932
lfoot -20.1154 12.8382
ltoes -55.9693
